# xmcd
#
# Track frame offsets:
#	150
#	13540
#	27619
#	47688
#	67813
#	83983
#	99851
#	116205
#	134067
#	155125
#	171998
#	192102
#	213375
#	227145
#	240025
#	255009
#	273720
#	287396
#	304581
#	320672
#
# Disc length: 4491 seconds
#
# Revision: 0
# Processed by: cddbd v1.5.2PL0 Copyright (c) Steve Scherf et al.
# Submitted via: dBpowerAMP V4.0
#
DISCID=12118914
DTITLE=Daniel - O Melhor dos 5
DYEAR=1900
DGENRE=Country
TTITLE0=Encanto da Natureza
TTITLE1=Pra Tudo Se Dá Jeito
TTITLE2=Travessa do Araguaia
TTITLE3=Pout-Pourri - Pagodes - Pagode Em Brasilia/Pagode Na Praça/Tudo Certo
TTITLE4=Meu Reino Encantado
TTITLE5=Prato do Dia
TTITLE6=Porta Do Mundo
TTITLE7=Mágoa Do Boiadeiro
TTITLE8=Um Homem Apaixonado
TTITLE9=Dá-Me, Dá-Me (Dame Dame)
TTITLE10=O Mais Importante É O Verdadeiro Amor
TTITLE11=Estou Apaixonado
TTITLE12=Tá Faltando Amor
TTITLE13=Cheiro Dela
TTITLE14=Eu Me Amarrei
TTITLE15=Nelore Valente
TTITLE16=Aos Trancos E Barrancos
TTITLE17=Desejo De Amar
TTITLE18=Loura Do Carro Branco
TTITLE19=Rosto Molhado
EXTD=O Melhor dos 5. Daniel
EXTT0=
EXTT1=
EXTT2=
EXTT3=
EXTT4=
EXTT5=
EXTT6=
EXTT7=
EXTT8=
EXTT9=
EXTT10=
EXTT11=
EXTT12=
EXTT13=
EXTT14=
EXTT15=
EXTT16=
EXTT17=
EXTT18=
EXTT19=
PLAYORDER=
